# WaveFront *.obj file (generated by CINEMA 4D)

mtllib ./Grass_Patch_03.mtl

v -7.20859575271606 -1.84131717681885 -9.16714191436768
v 0.15022426843643 -1.84131717681885 4.16714143753052
v -7.20859575271606 13.38876247406006 -9.16714191436768
v 0.15022426843643 13.38876247406006 4.16714143753052
v 0.40502315759659 -1.84131717681885 -9.02003288269043
v -7.46339464187622 -1.84131717681885 4.02003335952759
v 0.40502315759659 13.38876247406006 -9.02003288269043
v -7.46339464187622 13.38876247406006 4.02003335952759
v 2.0265064239502 -1.36900913715363 -1.40932023525238
v -9.08487796783447 -1.36900913715363 -3.59067988395691
v 2.0265064239502 9.95447063446045 -1.40932023525238
v -9.08487796783447 9.95447063446045 -3.59067988395691
v 8.79418563842773 -1.65763902664185 1.81992208957672
v -1.85192954540253 -1.65763902664185 -6.81992197036743
v 8.79418563842773 12.05318355560303 1.81992208957672
v -1.85192954540253 12.05318355560303 -6.81992197036743
v 2.3914942741394 -1.65763902664185 4.26986408233643
v 4.55076122283936 -1.65763902664185 -9.26986408233643
v 2.3914942741394 12.05318355560303 4.26986408233643
v 4.55076122283936 12.05318355560303 -9.26986408233643
v -1.53321981430054 -1.23244535923004 -1.53278362751007
v 8.4754753112793 -1.23244535923004 -3.46721649169922
v -1.53321981430054 8.96147537231445 -1.53278362751007
v 8.4754753112793 8.96147537231445 -3.46721649169922
v -7.07375144958496 -2.30379962921143 -1.61044871807098
v 11.89842224121094 -2.30379962921143 -3.38955116271973
v -7.07375144958496 16.75160789489746 -1.61044871807098
v 11.89842224121094 16.75160789489746 -3.38955116271973
v -3.10108184814453 -2.30379962921143 -10.27041625976562
v 7.92575263977051 -2.30379962921143 5.27041625976562
v -3.10108184814453 16.75160789489746 -10.27041625976562
v 7.92575263977051 16.75160789489746 5.27041625976562
v 6.43917798995972 -1.7128621339798 -8.32792282104492
v -1.61450719833374 -1.7128621339798 3.3279230594635
v 6.43917798995972 12.45472717285156 -8.32792282104492
v -1.61450719833374 12.45472717285156 3.3279230594635
v 8.59316635131836 -2.47069072723389 3.73566508293152
v -10.42791938781738 -2.47069072723389 -3.73566508293152
v 8.59316635131836 17.96512222290039 3.73566508293152
v -10.42791938781738 17.96512222290039 -3.73566508293152
v 0.60271424055099 -2.47069072723389 10.10420417785645
v -2.4374668598175 -2.47069072723389 -10.10420417785645
v 0.60271424055099 17.96512222290039 10.10420417785645
v -2.4374668598175 17.96512222290039 -10.10420417785645
v -7.59019756317139 -1.83694469928741 3.63141942024231
v 5.75544500350952 -1.83694469928741 -3.63141942024231
v -7.59019756317139 13.35696887969971 3.63141942024231
v 5.75544500350952 13.35696887969971 -3.63141942024231
v 3.73458409309387 -1.98779404163361 8.01731777191162
v 0.09895802289248 -1.98779404163361 -8.01731777191162
v 3.73458409309387 14.45383930206299 8.01731777191162
v 0.09895802289248 14.45383930206299 -8.01731777191162
v -4.11752319335938 -1.98779404163361 5.58293104171753
v 7.95106506347656 -1.98779404163361 -5.58293104171753
v -4.11752319335938 14.45383930206299 5.58293104171753
v 7.95106506347656 14.45383930206299 -5.58293104171753
v -3.51823949813843 -1.47791373729706 -2.79621315002441
v 7.35178184509277 -1.47791373729706 2.79621315002441
v -3.51823949813843 10.74634838104248 -2.79621315002441
v 7.35178184509277 10.74634838104248 2.79621315002441
v -2.89112758636475 -1.36716496944427 -2.56070899963379
v 7.19088888168335 -1.36716496944427 2.56070899963379
v -2.89112758636475 9.94106101989746 -2.56070899963379
v 7.19088888168335 9.94106101989746 2.56070899963379
v 1.84701550006866 -1.36716496944427 -5.64599561691284
v 2.45274567604065 -1.36716496944427 5.64599561691284
v 1.84701550006866 9.94106101989746 -5.64599561691284
v 2.45274567604065 9.94106101989746 5.64599561691284
v 6.01747512817383 -1.0164794921875 -1.64731919765472
v -1.71771383285522 -1.0164794921875 1.64731919765472
v 6.01747512817383 7.39112329483032 -1.64731919765472
v -1.71771383285522 7.39112329483032 1.64731919765472
v -2.50054574012756 -1.11837065219879 4.45044565200806
v -10.88818454742432 -1.11837065219879 0.54955440759659
v -2.50054574012756 8.13200378417969 4.45044565200806
v -10.88818454742432 8.13200378417969 0.54955440759659
v -6.28659105300903 -1.11837065219879 7.10717678070068
v -7.10213899612427 -1.11837065219879 -2.10717678070068
v -6.28659105300903 8.13200378417969 7.10717678070068
v -7.10213899612427 8.13200378417969 -2.10717678070068
v -9.80950450897217 -0.83150231838226 3.95645332336426
v -3.57922530174255 -0.83150231838226 1.04354679584503
v -9.80950450897217 6.04609966278076 3.95645332336426
v -3.57922530174255 6.04609966278076 1.04354679584503
v 7.9737982749939 -0.98641574382782 0.99217355251312
v 0.39263215661049 -0.98641574382782 4.00782632827759
v 7.9737982749939 7.17252063751221 0.99217355251312
v 0.39263215661049 7.17252063751221 4.00782632827759
v 7.38432312011719 -0.98641574382782 5.02882814407349
v 0.98210769891739 -0.98641574382782 -0.02882805466652
v 7.38432312011719 7.17252063751221 5.02882814407349
v 0.98210769891739 7.17252063751221 -0.02882805466652
v 3.23044371604919 -0.73339456319809 5.37952947616577
v 5.13598680496216 -0.73339456319809 -0.37952959537506
v 3.23044371604919 5.33272933959961 5.37952947616577
v 5.13598680496216 5.33272933959961 -0.37952959537506
v 4.15447998046875 -0.87522965669632 0.35628709197044
v 9.98759365081787 -0.87522965669632 4.64371299743652
v 4.15447998046875 6.36405420303345 0.35628709197044
v 9.98759365081787 6.36405420303345 4.64371299743652
v 7.46926832199097 -0.87522965669632 -1.09766852855682
v 6.67280530929565 -0.87522965669632 6.09766864776611
v 7.46926832199097 6.36405420303345 -1.09766852855682
v 6.67280530929565 6.36405420303345 6.09766864776611
v 9.68583679199219 -0.65072840452194 1.86337554454803
v 4.45623683929443 -0.65072840452194 3.13662433624268
v 9.68583679199219 4.73163890838623 1.86337554454803
v 4.45623683929443 4.73163890838623 3.13662433624268
# 108 vertices

vn 0.87552285194397 0 -0.48317670822144
vn 0.85620474815369 0 0.51663666963577
vn -0.19264040887356 0 0.98126941919327
vn -0.63014769554138 0 0.77647525072098
vn -0.98752117156982 0 -0.15748634934425
vn -0.18976339697838 0 -0.98182982206345
vn -0.09336470067501 0 -0.99563199281692
vn 0.81556022167206 0 -0.57867223024368
vn 0.82271200418472 0 0.56845837831497
vn -0.36559990048409 0 0.93077212572098
vn -0.98887223005295 0 0.14876732230186
vn -0.47800976037979 0 -0.87835448980331
vn -0.97524589300156 0 0.22112317383289
vn -0.67912125587463 0 -0.73402613401413
vn 0.45748579502106 0 -0.88921695947647
vn 0.45289307832718 0 -0.89156484603882
vn 0.99856436252594 0 -0.05356547236443
vn 0.3918642103672 0 0.92002308368683
vn -0.42170083522797 0 0.90673500299454
vn -0.99610596895218 0 0.08816381543875
vn -0.42353519797325 0 -0.90587961673737
vn 0.36961349844933 0 0.92918556928635
vn -0.61989158391953 0 0.78468745946884
vn -0.94938039779663 0 -0.31412866711617
vn 0.59224450588226 0 -0.80575829744339
vn 0.99392944574356 -0 0.1100196018815
vn 0.23655927181244 -0 0.97161704301834
# 27 normals

vt 0 0 0
vt 0 1 0
vt 1 1 0
vt 1 0 0
# 4 texture coordinates

o Grass_03_Patch.1
usemtl default
f 1/1/1 3/2/1 4/3/1 2/4/1
f 5/1/2 7/2/2 8/3/2 6/4/2
f 9/1/3 11/2/3 12/3/3 10/4/3
f 13/1/4 15/2/4 16/3/4 14/4/4
f 17/1/5 19/2/5 20/3/5 18/4/5
f 21/1/6 23/2/6 24/3/6 22/4/6
f 25/1/7 27/2/7 28/3/7 26/4/7
f 29/1/8 31/2/8 32/3/8 30/4/8
f 33/1/9 35/2/9 36/3/9 34/4/9
f 37/1/10 39/2/10 40/3/10 38/4/10
f 41/1/11 43/2/11 44/3/11 42/4/11
f 45/1/12 47/2/12 48/3/12 46/4/12
f 49/1/13 51/2/13 52/3/13 50/4/13
f 53/1/14 55/2/14 56/3/14 54/4/14
f 57/1/15 59/2/15 60/3/15 58/4/15
f 61/1/16 63/2/16 64/3/16 62/4/16
f 65/1/17 67/2/17 68/3/17 66/4/17
f 69/1/18 71/2/18 72/3/18 70/4/18
f 73/1/19 75/2/19 76/3/19 74/4/19
f 77/1/20 79/2/20 80/3/20 78/4/20
f 81/1/21 83/2/21 84/3/21 82/4/21
f 85/1/22 87/2/22 88/3/22 86/4/22
f 89/1/23 91/2/23 92/3/23 90/4/23
f 93/1/24 95/2/24 96/3/24 94/4/24
f 97/1/25 99/2/25 100/3/25 98/4/25
f 101/1/26 103/2/26 104/3/26 102/4/26
f 105/1/27 107/2/27 108/3/27 106/4/27

