# WaveFront *.obj file (generated by CINEMA 4D)

mtllib ./Grass_Patch_02.mtl

v -5.26721572875977 -0.8697766661644 -5.64933443069458
v -1.79115545749664 -0.8697766661644 0.64933466911316
v -5.26721572875977 6.32440376281738 -5.64933443069458
v -1.79115545749664 6.32440376281738 0.64933466911316
v -1.67079699039459 -0.8697766661644 -5.5798454284668
v -5.38757419586182 -0.8697766661644 0.57984566688538
v -1.67079699039459 6.32440376281738 -5.5798454284668
v -5.38757419586182 6.32440376281738 0.57984566688538
v -0.90486258268356 -0.64667409658432 -1.9847993850708
v -6.15350866317749 -0.64667409658432 -3.0152006149292
v -0.90486258268356 4.70215892791748 -1.9847993850708
v -6.15350866317749 4.70215892791748 -3.0152006149292
v 5.98556232452393 -0.78301322460175 -0.45941326022148
v 0.95669358968735 -0.78301322460175 -4.54058694839478
v 5.98556232452393 5.69352102279663 -0.45941326022148
v 0.95669358968735 5.69352102279663 -4.54058694839478
v 2.96114492416382 -0.78301322460175 0.69785732030869
v 3.98111057281494 -0.78301322460175 -5.69785737991333
v 2.96114492416382 5.69352102279663 0.69785732030869
v 3.98111057281494 5.69352102279663 -5.69785737991333
v 1.10724139213562 -0.58216595649719 -2.04311919212341
v 5.83501434326172 -0.58216595649719 -2.95688080787659
v 1.10724139213562 4.23310089111328 -2.04311919212341
v 5.83501434326172 4.23310089111328 -2.95688080787659
v -2.06857466697693 -1.08823788166046 -2.07980585098267
v 6.89324522018433 -1.08823788166046 -2.92019414901733
v -2.06857466697693 7.91289949417114 -2.07980585098267
v 6.89324522018433 7.91289949417114 -2.92019414901733
v -0.1920185983181 -1.08823788166046 -6.17048501968384
v 5.01668930053711 -1.08823788166046 1.17048478126526
v -0.1920185983181 7.91289949417114 -6.17048501968384
v 5.01668930053711 7.91289949417114 1.17048478126526
v 4.31448125839233 -0.80909878015518 -5.25291585922241
v 0.51018959283829 -0.80909878015518 0.25291594862938
v 4.31448125839233 5.88319683074951 -5.25291585922241
v 0.51018959283829 5.88319683074951 0.25291594862938
v 3.57508611679077 -1.16707158088684 1.76460325717926
v -5.40983867645264 -1.16707158088684 -1.76460325717926
v 3.57508611679077 8.48612308502197 1.76460325717926
v -5.40983867645264 8.48612308502197 -1.76460325717926
v -0.19933637976646 -1.16707158088684 4.77288818359375
v -1.63541626930237 -1.16707158088684 -4.77288818359375
v -0.19933637976646 8.48612308502197 4.77288818359375
v -1.63541626930237 8.48612308502197 -4.77288818359375
v -4.0693941116333 -0.86771124601364 1.71536111831665
v 2.23464131355286 -0.86771124601364 -1.71536111831665
v -4.0693941116333 6.30938529968262 1.71536111831665
v 2.23464131355286 6.30938529968262 -1.71536111831665
v 2.77544522285461 -0.93896740674973 3.78711271286011
v 1.05809700489044 -0.93896740674973 -3.78711271286011
v 2.77544522285461 6.82750988006592 3.78711271286011
v 1.05809700489044 6.82750988006592 -3.78711271286011
v -0.93362760543823 -0.93896740674973 2.6371898651123
v 4.76716995239258 -0.93896740674973 -2.6371898651123
v -0.93362760543823 6.82750988006592 2.6371898651123
v 4.76716995239258 6.82750988006592 -2.6371898651123
v -0.65054613351822 -0.69811701774597 -1.32083761692047
v 4.48408842086792 -0.69811701774597 1.32083761692047
v -0.65054613351822 5.07621574401855 -1.32083761692047
v 4.48408842086792 5.07621574401855 1.32083761692047
v -0.23132309317589 -0.64580297470093 -1.20959329605103
v 4.53108406066895 -0.64580297470093 1.20959329605103
v -0.23132309317589 4.69582462310791 -1.20959329605103
v 4.53108406066895 4.69582462310791 1.20959329605103
v 2.00681734085083 -0.64580297470093 -2.66697955131531
v 2.29294395446777 -0.64580297470093 2.66697955131531
v 2.00681734085083 4.69582462310791 -2.66697955131531
v 2.29294395446777 4.69582462310791 2.66697955131531
v 3.97680282592773 -0.48015093803406 -0.77813851833344
v 0.32295835018158 -0.48015093803406 0.77813851833344
v 3.97680282592773 3.49131941795349 -0.77813851833344
v 0.32295835018158 3.49131941795349 0.77813851833344
v -4.71334505081177 -0.5282809138298 3.42132520675659
v -8.67538452148438 -0.5282809138298 1.57867479324341
v -4.71334505081177 3.84128665924072 3.42132520675659
v -8.67538452148438 3.84128665924072 1.57867479324341
v -6.50174617767334 -0.5282809138298 4.67627620697021
v -6.88698387145996 -0.5282809138298 0.32372379302979
v -6.50174617767334 3.84128665924072 4.67627620697021
v -6.88698387145996 3.84128665924072 0.32372379302979
v -8.16585254669189 -0.39277389645576 3.18797969818115
v -5.22287702560425 -0.39277389645576 1.81202018260956
v -8.16585254669189 2.85597515106201 3.18797969818115
v -5.22287702560425 2.85597515106201 1.81202018260956
v 5.97376012802124 -0.46594980359077 1.78775322437286
v 2.39267063140869 -0.46594980359077 3.21224689483643
v 5.97376012802124 3.38805890083313 1.78775322437286
v 2.39267063140869 3.38805890083313 3.21224689483643
v 5.69531154632568 -0.46594980359077 3.69453382492065
v 2.67111921310425 -0.46594980359077 1.30546617507935
v 5.69531154632568 3.38805890083313 3.69453382492065
v 2.67111921310425 3.38805890083313 1.30546617507935
v 3.73315787315369 -0.34643107652664 3.86019349098206
v 4.63327264785767 -0.34643107652664 1.13980650901794
v 3.73315787315369 2.51900291442871 3.86019349098206
v 4.63327264785767 2.51900291442871 1.13980650901794
v 5.69335317611694 -0.41342923045158 1.48738169670105
v 8.44872093200684 -0.41342923045158 3.51261830329895
v 5.69335317611694 3.0061662197113 1.48738169670105
v 8.44872093200684 3.0061662197113 3.51261830329895
v 7.25914812088013 -0.41342923045158 0.80058169364929
v 6.88292551040649 -0.41342923045158 4.19941806793213
v 7.25914812088013 3.0061662197113 0.80058169364929
v 6.88292551040649 3.0061662197113 4.19941806793213
v 8.30618095397949 -0.30738231539726 2.19928002357483
v 5.83589267730713 -0.30738231539726 2.80071997642517
v 8.30618095397949 2.23506784439087 2.19928002357483
v 5.83589267730713 2.23506784439087 2.80071997642517
# 108 vertices

vn 0.87552285194397 0 -0.48317667841911
vn 0.85620474815369 0 0.51663666963577
vn -0.1926403939724 0 0.98126941919327
vn -0.63014775514603 0 0.77647525072098
vn -0.98752117156982 0 -0.15748634934425
vn -0.18976341187954 0 -0.98182982206345
vn -0.09336470812559 0 -0.99563199281692
vn 0.81556022167206 0 -0.57867217063904
vn 0.82271200418472 0 0.56845837831497
vn -0.36559981107712 0 0.93077212572098
vn -0.98887223005295 0 0.14876729249954
vn -0.47800981998444 0 -0.87835448980331
vn -0.97524589300156 0 0.22112317383289
vn -0.67912119626999 0 -0.73402613401413
vn 0.45748579502106 0 -0.88921695947647
vn 0.4528931081295 0 -0.89156484603882
vn 0.99856436252594 0 -0.05356545746326
vn 0.39186415076256 0 0.92002308368683
vn -0.42170086503029 0 0.90673500299454
vn -0.99610596895218 0 0.08816384524107
vn -0.42353522777557 0 -0.90587961673737
vn 0.36961349844933 0 0.92918556928635
vn -0.61989164352417 0 0.7846873998642
vn -0.94938045740128 0 -0.31412860751152
vn 0.59224450588226 0 -0.80575829744339
vn 0.99392944574356 -0 0.1100196018815
vn 0.23655927181244 0 0.97161704301834
# 27 normals

vt 0 0 0
vt 0 1 0
vt 1 1 0
vt 1 0 0
# 4 texture coordinates

o Grass_02_Patch.1
usemtl default
f 1/1/1 3/2/1 4/3/1 2/4/1
f 5/1/2 7/2/2 8/3/2 6/4/2
f 9/1/3 11/2/3 12/3/3 10/4/3
f 13/1/4 15/2/4 16/3/4 14/4/4
f 17/1/5 19/2/5 20/3/5 18/4/5
f 21/1/6 23/2/6 24/3/6 22/4/6
f 25/1/7 27/2/7 28/3/7 26/4/7
f 29/1/8 31/2/8 32/3/8 30/4/8
f 33/1/9 35/2/9 36/3/9 34/4/9
f 37/1/10 39/2/10 40/3/10 38/4/10
f 41/1/11 43/2/11 44/3/11 42/4/11
f 45/1/12 47/2/12 48/3/12 46/4/12
f 49/1/13 51/2/13 52/3/13 50/4/13
f 53/1/14 55/2/14 56/3/14 54/4/14
f 57/1/15 59/2/15 60/3/15 58/4/15
f 61/1/16 63/2/16 64/3/16 62/4/16
f 65/1/17 67/2/17 68/3/17 66/4/17
f 69/1/18 71/2/18 72/3/18 70/4/18
f 73/1/19 75/2/19 76/3/19 74/4/19
f 77/1/20 79/2/20 80/3/20 78/4/20
f 81/1/21 83/2/21 84/3/21 82/4/21
f 85/1/22 87/2/22 88/3/22 86/4/22
f 89/1/23 91/2/23 92/3/23 90/4/23
f 93/1/24 95/2/24 96/3/24 94/4/24
f 97/1/25 99/2/25 100/3/25 98/4/25
f 101/1/26 103/2/26 104/3/26 102/4/26
f 105/1/27 107/2/27 108/3/27 106/4/27

